<svg width="0" height="0" class="hidden">


    <symbol fill="none" xmlns="http://www.w3.org/2000/svg" viewBox="0 0 24 24" id="edit">
        <path
                d="m21.94 2.76-.71-.71a2.758 2.758 0 0 0-3.89 0L7.03 12.38c-.29.29-.47.67-.51 1.08l-.27 2.93c-.03.37.1.73.36 1 .24.24.55.37.88.37h.11l2.93-.27c.41-.04.79-.22 1.08-.51L21.93 6.66a2.732 2.732 0 0 0 0-3.88zM10.56 15.91s-.1.07-.15.07l-2.63.24.24-2.63c0-.06.03-.11.07-.16l8.38-8.38 2.47 2.47-8.38 8.38zM20.88 5.59l-.88.88L17.53 4l.88-.88c.24-.24.56-.37.88-.37s.64.12.88.37l.71.71a1.234 1.234 0 0 1 0 1.76zm-.13 7.6V19c0 2.07-1.68 3.75-3.75 3.75H5c-2.07 0-3.75-1.68-3.75-3.75V7c0-2.07 1.68-3.75 3.75-3.75h5.81c.41 0 .75.34.75.75s-.34.75-.75.75H5C3.76 4.75 2.75 5.76 2.75 7v12c0 1.24 1.01 2.25 2.25 2.25h12c1.24 0 2.25-1.01 2.25-2.25v-5.81c0-.41.34-.75.75-.75s.75.34.75.75z"
                fill="currentColor"/>
    </symbol>

    <symbol fill="none" xmlns="http://www.w3.org/2000/svg" viewBox="0 0 512 512" id="trash">
        <path
                d="M436 60h-75V45c0-24.813-20.187-45-45-45H196c-24.813 0-45 20.187-45 45v15H76c-24.813 0-45 20.187-45 45 0 19.928 13.025 36.861 31.005 42.761L88.76 470.736C90.687 493.875 110.385 512 133.604 512h244.792c23.22 0 42.918-18.125 44.846-41.271l26.753-322.969C467.975 141.861 481 124.928 481 105c0-24.813-20.187-45-45-45zM181 45c0-8.271 6.729-15 15-15h120c8.271 0 15 6.729 15 15v15H181V45zm212.344 423.246c-.643 7.712-7.208 13.754-14.948 13.754H133.604c-7.739 0-14.305-6.042-14.946-13.747L92.294 150h327.412l-26.362 318.246zM436 120H76c-8.271 0-15-6.729-15-15s6.729-15 15-15h360c8.271 0 15 6.729 15 15s-6.729 15-15 15z"
                fill="currentColor"/>
        <path
                d="m195.971 436.071-15-242c-.513-8.269-7.67-14.558-15.899-14.043-8.269.513-14.556 7.631-14.044 15.899l15 242.001c.493 7.953 7.097 14.072 14.957 14.072 8.687 0 15.519-7.316 14.986-15.929zM256 180c-8.284 0-15 6.716-15 15v242c0 8.284 6.716 15 15 15s15-6.716 15-15V195c0-8.284-6.716-15-15-15zm90.927.029c-8.25-.513-15.387 5.774-15.899 14.043l-15 242c-.511 8.268 5.776 15.386 14.044 15.899 8.273.512 15.387-5.778 15.899-14.043l15-242c.512-8.269-5.775-15.387-14.044-15.899z"
                fill="currentColor"/>
    </symbol>

    <symbol viewBox="0 0 24 24" fill="none" xmlns="http://www.w3.org/2000/svg" id="cross">
        <g id="SVGRepo_bgCarrier" stroke-width="0"></g>
        <g id="SVGRepo_tracerCarrier" stroke-linecap="round" stroke-linejoin="round"></g>
        <g id="SVGRepo_iconCarrier">
            <path d="M16 8L8 16M8.00001 8L16 16" stroke="currentColor" stroke-width="1.5" stroke-linecap="round"
                  stroke-linejoin="round"></path>
        </g>
    </symbol>
    <symbol fill="none" xmlns="http://www.w3.org/2000/svg" viewBox="0 0 682.667 682.667" id="plus">
        <defs>
            <clipPath id="a" clipPathUnits="userSpaceOnUse">
                <path d="M0 512h512V0H0Z" fill="currentColor"/>
            </clipPath>
        </defs>
        <path fill="none" stroke="currentColor" stroke-linecap="round" stroke-linejoin="round" stroke-miterlimit="10"
              stroke-width="60" d="M0 0v-180"
              style="stroke-width:40;stroke-linecap:round;stroke-linejoin:round;stroke-miterlimit:10;stroke-dasharray:none;stroke-opacity:1"
              transform="matrix(1.33333 0 0 -1.33333 341.333 221.31)"/>
        <path fill="none" stroke="currentColor" stroke-linecap="round" stroke-linejoin="round" stroke-miterlimit="10"
              stroke-width="60" d="M0 0h180"
              style="stroke-width:40;stroke-linecap:round;stroke-linejoin:round;stroke-miterlimit:10;stroke-dasharray:none;stroke-opacity:1"
              transform="matrix(1.33333 0 0 -1.33333 221.333 341.31)"/>
        <g clip-path="url(#a)" transform="matrix(1.33333 0 0 -1.33333 0 682.667)">
            <path fill="none" stroke="currentColor" stroke-linecap="round" stroke-linejoin="round"
                  stroke-miterlimit="10"
                  stroke-width="60"
                  d="M0 0c-35.623-21.578-77.411-34-122.1-34-130.339 0-236 105.661-236 236 0 130.34 105.661 236 236 236 130.34 0 236-105.66 236-236 0-48.467-14.943-93.521-40-131"
                  style="stroke-width:40;stroke-linecap:round;stroke-linejoin:round;stroke-miterlimit:10;stroke-dasharray:none;stroke-opacity:1"
                  transform="translate(378.1 54)"/>
        </g>
    </symbol>

    <symbol fill="none" xmlns="http://www.w3.org/2000/svg" viewBox="0 0 32 32" id="warning">
        <path
                d="M20.64 5.22A2.935 2.935 0 0 0 17.72 2h-3.44a2.935 2.935 0 0 0-2.92 3.22l1.55 15.4a2.913 2.913 0 0 0 2.91 2.64h.36a2.913 2.913 0 0 0 2.91-2.64zM16 24.15a2.925 2.925 0 1 0 2.93 2.92A2.932 2.932 0 0 0 16 24.15z"
                fill="currentColor"/>
    </symbol>

    <symbol fill="none" xmlns="http://www.w3.org/2000/svg" viewBox="0 0 111.577 111.577" id="info">
        <path
                d="m78.962 99.536-1.559 6.373c-4.677 1.846-8.413 3.251-11.195 4.217-2.785.969-6.021 1.451-9.708 1.451-5.662 0-10.066-1.387-13.207-4.142-3.141-2.766-4.712-6.271-4.712-10.523 0-1.646.114-3.339.351-5.064.239-1.727.619-3.672 1.139-5.846l5.845-20.688c.52-1.981.962-3.858 1.316-5.633.359-1.764.532-3.387.532-4.848 0-2.642-.547-4.49-1.636-5.529-1.089-1.036-3.167-1.562-6.252-1.562-1.511 0-3.064.242-4.647.71-1.59.47-2.949.924-4.09 1.346l1.563-6.378c3.829-1.559 7.489-2.894 10.99-4.002 3.501-1.111 6.809-1.667 9.938-1.667 5.623 0 9.962 1.359 13.009 4.077 3.047 2.72 4.57 6.246 4.57 10.591 0 .899-.1 2.483-.315 4.747-.21 2.269-.601 4.348-1.171 6.239l-5.82 20.605c-.477 1.655-.906 3.547-1.279 5.676-.385 2.115-.569 3.731-.569 4.815 0 2.736.61 4.604 1.833 5.597 1.232.993 3.354 1.487 6.368 1.487 1.415 0 3.025-.251 4.814-.744 1.784-.493 3.085-.926 3.892-1.305zm1.476-86.506c0 3.59-1.353 6.656-4.072 9.177-2.712 2.53-5.98 3.796-9.803 3.796-3.835 0-7.111-1.266-9.854-3.796-2.738-2.522-4.11-5.587-4.11-9.177 0-3.583 1.372-6.654 4.11-9.207C59.447 1.274 62.729 0 66.563 0c3.822 0 7.091 1.277 9.803 3.823 2.721 2.553 4.072 5.625 4.072 9.207z"
                fill="currentColor"/>
    </symbol>

    <symbol fill="none" xmlns="http://www.w3.org/2000/svg" viewBox="0 0 520 520" id="check">
        <path
                d="M239.987 460.841a10 10 0 0 1-7.343-3.213L34.657 243.463A10 10 0 0 1 42 226.675h95.3a10.006 10.006 0 0 1 7.548 3.439l66.168 76.124c7.151-15.286 20.994-40.738 45.286-71.752 35.912-45.85 102.71-113.281 216.994-174.153a10 10 0 0 1 10.85 16.712c-.436.341-44.5 35.041-95.212 98.6-46.672 58.49-108.714 154.13-139.243 277.6a10 10 0 0 1-9.707 7.6z"
                fill="currentColor"/>
    </symbol>

    <symbol fill="none" xmlns="http://www.w3.org/2000/svg" viewBox="0 0 24 24" id="copy">
        <path
                d="m1.293 12.707 4 4a1 1 0 1 0 1.414-1.414L3.414 12l3.293-3.293a1 1 0 1 0-1.414-1.414l-4 4a1 1 0 0 0 0 1.414zm17.414-5.414a1 1 0 1 0-1.414 1.414L20.586 12l-3.293 3.293a1 1 0 1 0 1.414 1.414l4-4a1 1 0 0 0 0-1.414zm-5.668-2.567-4 14a1 1 0 0 0 .686 1.236A1.053 1.053 0 0 0 10 20a1 1 0 0 0 .961-.726l4-14a1 1 0 1 0-1.922-.548z"
                fill="currentColor"/>
    </symbol>
    <symbol fill="none" xmlns="http://www.w3.org/2000/svg" viewBox="0 0 512 512" id="responsive">
        <path
                stroke-width="5"
                stroke="currentColor"
                d="M476 184h-4v-76a28.031 28.031 0 0 0-28-28H68a28.031 28.031 0 0 0-28 28v124h-4a28.031 28.031 0 0 0-28 28v136a28.031 28.031 0 0 0 28 28h72a28.031 28.031 0 0 0 28-28v-28h69.75l-4 16H184a8 8 0 0 0-8 8v24a8 8 0 0 0 8 8h144a8 8 0 0 0 8-8v-24a8 8 0 0 0-8-8h-17.75l-4-16H344v28a28.031 28.031 0 0 0 28 28h104a28.031 28.031 0 0 0 28-28V212a28.031 28.031 0 0 0-28-28ZM120 396a12.01 12.01 0 0 1-12 12H36a12.01 12.01 0 0 1-12-12V260a12.01 12.01 0 0 1 12-12h6.23l6.18 18.53A8 8 0 0 0 56 272h32a8 8 0 0 0 7.59-5.47l6.18-18.53H108a12.01 12.01 0 0 1 12 12ZM59.1 248h25.8l-2.67 8H61.77ZM320 400v8H192v-8Zm-101.75-16 4-16h67.5l4 16ZM344 352H136v-32h208Zm0-140v92H136v-44a28.031 28.031 0 0 0-28-28H56V108a12.01 12.01 0 0 1 12-12h376a12.01 12.01 0 0 1 12 12v76h-84a28.031 28.031 0 0 0-28 28Zm92.9-12-2.67 8h-20.46l-2.67-8ZM488 396a12.01 12.01 0 0 1-12 12H372a12.01 12.01 0 0 1-12-12V212a12.01 12.01 0 0 1 12-12h22.23l6.18 18.53A8 8 0 0 0 408 224h32a8 8 0 0 0 7.59-5.47l6.18-18.53H476a12.01 12.01 0 0 1 12 12Z"
                fill="currentColor"/>
        <path
                stroke-width="5"
                stroke="currentColor"
                d="M440 384h-32a8 8 0 0 0 0 16h32a8 8 0 0 0 0-16Zm-352 0H56a8 8 0 0 0 0 16h32a8 8 0 0 0 0-16Zm176-56h-16a8 8 0 0 0 0 16h16a8 8 0 0 0 0-16Z"
                fill="currentColor"/>
    </symbol>
    <symbol fill="none" xmlns="http://www.w3.org/2000/svg" viewBox="0 0 512 512" id="save">
        <path
                d="M498.768 115.555 395.393 13.18C386.894 4.681 375.594 0 363.574 0H45C20.187 0 0 20.187 0 45v422c0 24.813 20.187 45 45 45h422c24.813 0 45-20.187 45-45V147.426c0-12.02-4.681-23.32-13.232-31.871zM241 30h30v60h-30V30zm-120 0h90v75c0 8.284 6.716 15 15 15h60c8.284 0 15-6.716 15-15V30h30v105c0 8.271-6.729 15-15 15H136c-8.271 0-15-6.729-15-15V30zm270 452H121V332h270v150zm0-180H121v-15c0-8.271 6.729-15 15-15h240c8.271 0 15 6.729 15 15v15zm91 165c0 8.271-6.729 15-15 15h-46V287c0-24.813-20.187-45-45-45H136c-24.813 0-45 20.187-45 45v195H45c-8.271 0-15-6.729-15-15V45c0-8.271 6.729-15 15-15h46v105c0 24.813 20.187 45 45 45h180c24.813 0 45-20.187 45-45V30h2.574c4.006 0 7.773 1.56 10.658 4.445L477.607 136.82A14.901 14.901 0 0 1 482 147.426V467z"
                fill="currentColor"/>
        <path
                d="M346 362H166c-8.284 0-15 6.716-15 15s6.716 15 15 15h180c8.284 0 15-6.716 15-15s-6.716-15-15-15zm-30 60H196c-8.284 0-15 6.716-15 15s6.716 15 15 15h120c8.284 0 15-6.716 15-15s-6.716-15-15-15z"
                fill="currentColor"/>
    </symbol>
    <symbol fill="none" xmlns="http://www.w3.org/2000/svg" viewBox="0 0 24 24" id="down">
        <path
                d="M12 13.172l4.95-4.95 1.414 1.414L12 16 5.636 9.636 7.05 8.222z"
                fill="currentColor"
        />
    </symbol>
</svg>
